<mxfile host="Electron" modified="2024-03-21T22:11:12.221Z" agent="Mozilla/5.0 (Macintosh; Intel Mac OS X 10_15_7) AppleWebKit/537.36 (KHTML, like Gecko) draw.io/21.6.1 Chrome/112.0.5615.204 Electron/24.6.1 Safari/537.36" etag="rVQW_IbNYcVEnfjF2TI0" version="21.6.1" type="device">
  <diagram name="Page-1" id="FPVlJsfqnMSD1MY_WhDT">
    <mxGraphModel dx="2084" dy="709" grid="1" gridSize="10" guides="1" tooltips="1" connect="1" arrows="1" fold="1" page="1" pageScale="1" pageWidth="827" pageHeight="1169" math="0" shadow="0">
      <root>
        <mxCell id="0" />
        <mxCell id="1" parent="0" />
        <mxCell id="ubx7Iqhd6SEWWLw_gcQs-1" value="Product" style="swimlane;fontStyle=1;align=center;verticalAlign=top;childLayout=stackLayout;horizontal=1;startSize=26;horizontalStack=0;resizeParent=1;resizeParentMax=0;resizeLast=0;collapsible=1;marginBottom=0;whiteSpace=wrap;html=1;" parent="1" vertex="1">
          <mxGeometry x="-540" y="40" width="160" height="290" as="geometry" />
        </mxCell>
        <mxCell id="ubx7Iqhd6SEWWLw_gcQs-2" value="id&lt;br&gt;name&lt;br&gt;description&lt;br&gt;image&lt;br&gt;unit&lt;br&gt;cost&lt;br&gt;price&lt;br&gt;stock&lt;br&gt;lowest_stock_critical_threshold&lt;br&gt;highest_stock_critical_threshold&lt;br&gt;is_best_selling?&lt;br&gt;half_made?&lt;br&gt;" style="text;strokeColor=none;fillColor=none;align=left;verticalAlign=top;spacingLeft=4;spacingRight=4;overflow=hidden;rotatable=0;points=[[0,0.5],[1,0.5]];portConstraint=eastwest;whiteSpace=wrap;html=1;" parent="ubx7Iqhd6SEWWLw_gcQs-1" vertex="1">
          <mxGeometry y="26" width="160" height="184" as="geometry" />
        </mxCell>
        <mxCell id="ubx7Iqhd6SEWWLw_gcQs-3" value="" style="line;strokeWidth=1;fillColor=none;align=left;verticalAlign=middle;spacingTop=-1;spacingLeft=3;spacingRight=3;rotatable=0;labelPosition=right;points=[];portConstraint=eastwest;strokeColor=inherit;" parent="ubx7Iqhd6SEWWLw_gcQs-1" vertex="1">
          <mxGeometry y="210" width="160" height="8" as="geometry" />
        </mxCell>
        <mxCell id="ubx7Iqhd6SEWWLw_gcQs-4" value="getIngredients()&lt;br&gt;calculateMargin()" style="text;strokeColor=none;fillColor=none;align=left;verticalAlign=top;spacingLeft=4;spacingRight=4;overflow=hidden;rotatable=0;points=[[0,0.5],[1,0.5]];portConstraint=eastwest;whiteSpace=wrap;html=1;" parent="ubx7Iqhd6SEWWLw_gcQs-1" vertex="1">
          <mxGeometry y="218" width="160" height="72" as="geometry" />
        </mxCell>
        <mxCell id="ubx7Iqhd6SEWWLw_gcQs-10" value="Recipe" style="swimlane;fontStyle=1;align=center;verticalAlign=top;childLayout=stackLayout;horizontal=1;startSize=26;horizontalStack=0;resizeParent=1;resizeParentMax=0;resizeLast=0;collapsible=1;marginBottom=0;whiteSpace=wrap;html=1;" parent="1" vertex="1">
          <mxGeometry x="-540" y="450" width="160" height="180" as="geometry" />
        </mxCell>
        <mxCell id="ubx7Iqhd6SEWWLw_gcQs-11" value="id&lt;br&gt;name&lt;br&gt;description&lt;br&gt;instructions&lt;br&gt;yield_quantity&lt;br&gt;prep_time" style="text;strokeColor=none;fillColor=none;align=left;verticalAlign=top;spacingLeft=4;spacingRight=4;overflow=hidden;rotatable=0;points=[[0,0.5],[1,0.5]];portConstraint=eastwest;whiteSpace=wrap;html=1;" parent="ubx7Iqhd6SEWWLw_gcQs-10" vertex="1">
          <mxGeometry y="26" width="160" height="104" as="geometry" />
        </mxCell>
        <mxCell id="ubx7Iqhd6SEWWLw_gcQs-12" value="" style="line;strokeWidth=1;fillColor=none;align=left;verticalAlign=middle;spacingTop=-1;spacingLeft=3;spacingRight=3;rotatable=0;labelPosition=right;points=[];portConstraint=eastwest;strokeColor=inherit;" parent="ubx7Iqhd6SEWWLw_gcQs-10" vertex="1">
          <mxGeometry y="130" width="160" height="8" as="geometry" />
        </mxCell>
        <mxCell id="ubx7Iqhd6SEWWLw_gcQs-13" value="AddRawMaterial&lt;br&gt;RemoveRawMaterial&lt;br&gt;" style="text;strokeColor=none;fillColor=none;align=left;verticalAlign=top;spacingLeft=4;spacingRight=4;overflow=hidden;rotatable=0;points=[[0,0.5],[1,0.5]];portConstraint=eastwest;whiteSpace=wrap;html=1;" parent="ubx7Iqhd6SEWWLw_gcQs-10" vertex="1">
          <mxGeometry y="138" width="160" height="42" as="geometry" />
        </mxCell>
        <mxCell id="ubx7Iqhd6SEWWLw_gcQs-14" value="Raw_Material" style="swimlane;fontStyle=1;align=center;verticalAlign=top;childLayout=stackLayout;horizontal=1;startSize=26;horizontalStack=0;resizeParent=1;resizeParentMax=0;resizeLast=0;collapsible=1;marginBottom=0;whiteSpace=wrap;html=1;" parent="1" vertex="1">
          <mxGeometry x="-166" y="450" width="160" height="204" as="geometry" />
        </mxCell>
        <mxCell id="ubx7Iqhd6SEWWLw_gcQs-15" value="id&lt;br&gt;name&lt;br&gt;brand&lt;br&gt;unit&lt;br&gt;stock&lt;br style=&quot;border-color: var(--border-color);&quot;&gt;lowest_stock_critical_threshold&lt;br style=&quot;border-color: var(--border-color);&quot;&gt;highest_stock_critical_threshold&lt;br style=&quot;border-color: var(--border-color);&quot;&gt;price&lt;br&gt;expiration_date" style="text;strokeColor=none;fillColor=none;align=left;verticalAlign=top;spacingLeft=4;spacingRight=4;overflow=hidden;rotatable=0;points=[[0,0.5],[1,0.5]];portConstraint=eastwest;whiteSpace=wrap;html=1;" parent="ubx7Iqhd6SEWWLw_gcQs-14" vertex="1">
          <mxGeometry y="26" width="160" height="144" as="geometry" />
        </mxCell>
        <mxCell id="ubx7Iqhd6SEWWLw_gcQs-16" value="" style="line;strokeWidth=1;fillColor=none;align=left;verticalAlign=middle;spacingTop=-1;spacingLeft=3;spacingRight=3;rotatable=0;labelPosition=right;points=[];portConstraint=eastwest;strokeColor=inherit;" parent="ubx7Iqhd6SEWWLw_gcQs-14" vertex="1">
          <mxGeometry y="170" width="160" height="8" as="geometry" />
        </mxCell>
        <mxCell id="ubx7Iqhd6SEWWLw_gcQs-17" value="+ method(type): type" style="text;strokeColor=none;fillColor=none;align=left;verticalAlign=top;spacingLeft=4;spacingRight=4;overflow=hidden;rotatable=0;points=[[0,0.5],[1,0.5]];portConstraint=eastwest;whiteSpace=wrap;html=1;" parent="ubx7Iqhd6SEWWLw_gcQs-14" vertex="1">
          <mxGeometry y="178" width="160" height="26" as="geometry" />
        </mxCell>
        <mxCell id="hXo2MKH_olmjNZv7yama-1" value="FAQ !NI" style="swimlane;fontStyle=1;align=center;verticalAlign=top;childLayout=stackLayout;horizontal=1;startSize=26;horizontalStack=0;resizeParent=1;resizeParentMax=0;resizeLast=0;collapsible=1;marginBottom=0;whiteSpace=wrap;html=1;" vertex="1" parent="1">
          <mxGeometry x="-166" y="50" width="160" height="114" as="geometry" />
        </mxCell>
        <mxCell id="hXo2MKH_olmjNZv7yama-2" value="id&lt;br&gt;question&lt;br&gt;answer" style="text;strokeColor=none;fillColor=none;align=left;verticalAlign=top;spacingLeft=4;spacingRight=4;overflow=hidden;rotatable=0;points=[[0,0.5],[1,0.5]];portConstraint=eastwest;whiteSpace=wrap;html=1;" vertex="1" parent="hXo2MKH_olmjNZv7yama-1">
          <mxGeometry y="26" width="160" height="54" as="geometry" />
        </mxCell>
        <mxCell id="hXo2MKH_olmjNZv7yama-3" value="" style="line;strokeWidth=1;fillColor=none;align=left;verticalAlign=middle;spacingTop=-1;spacingLeft=3;spacingRight=3;rotatable=0;labelPosition=right;points=[];portConstraint=eastwest;strokeColor=inherit;" vertex="1" parent="hXo2MKH_olmjNZv7yama-1">
          <mxGeometry y="80" width="160" height="8" as="geometry" />
        </mxCell>
        <mxCell id="hXo2MKH_olmjNZv7yama-4" value="+ method(type): type" style="text;strokeColor=none;fillColor=none;align=left;verticalAlign=top;spacingLeft=4;spacingRight=4;overflow=hidden;rotatable=0;points=[[0,0.5],[1,0.5]];portConstraint=eastwest;whiteSpace=wrap;html=1;" vertex="1" parent="hXo2MKH_olmjNZv7yama-1">
          <mxGeometry y="88" width="160" height="26" as="geometry" />
        </mxCell>
        <mxCell id="hXo2MKH_olmjNZv7yama-6" value="" style="endArrow=diamondThin;endFill=0;endSize=24;html=1;rounded=0;exitX=0.01;exitY=0.453;exitDx=0;exitDy=0;exitPerimeter=0;" edge="1" parent="1" source="ubx7Iqhd6SEWWLw_gcQs-15">
          <mxGeometry width="160" relative="1" as="geometry">
            <mxPoint x="-160" y="540" as="sourcePoint" />
            <mxPoint x="-380" y="539.71" as="targetPoint" />
          </mxGeometry>
        </mxCell>
        <mxCell id="hXo2MKH_olmjNZv7yama-9" value="ProductCategory !NI" style="swimlane;fontStyle=1;align=center;verticalAlign=top;childLayout=stackLayout;horizontal=1;startSize=26;horizontalStack=0;resizeParent=1;resizeParentMax=0;resizeLast=0;collapsible=1;marginBottom=0;whiteSpace=wrap;html=1;" vertex="1" parent="1">
          <mxGeometry x="-824" y="40" width="160" height="114" as="geometry" />
        </mxCell>
        <mxCell id="hXo2MKH_olmjNZv7yama-10" value="id&lt;br&gt;name&lt;br&gt;description" style="text;strokeColor=none;fillColor=none;align=left;verticalAlign=top;spacingLeft=4;spacingRight=4;overflow=hidden;rotatable=0;points=[[0,0.5],[1,0.5]];portConstraint=eastwest;whiteSpace=wrap;html=1;" vertex="1" parent="hXo2MKH_olmjNZv7yama-9">
          <mxGeometry y="26" width="160" height="54" as="geometry" />
        </mxCell>
        <mxCell id="hXo2MKH_olmjNZv7yama-11" value="" style="line;strokeWidth=1;fillColor=none;align=left;verticalAlign=middle;spacingTop=-1;spacingLeft=3;spacingRight=3;rotatable=0;labelPosition=right;points=[];portConstraint=eastwest;strokeColor=inherit;" vertex="1" parent="hXo2MKH_olmjNZv7yama-9">
          <mxGeometry y="80" width="160" height="8" as="geometry" />
        </mxCell>
        <mxCell id="hXo2MKH_olmjNZv7yama-12" value="+ method(type): type" style="text;strokeColor=none;fillColor=none;align=left;verticalAlign=top;spacingLeft=4;spacingRight=4;overflow=hidden;rotatable=0;points=[[0,0.5],[1,0.5]];portConstraint=eastwest;whiteSpace=wrap;html=1;" vertex="1" parent="hXo2MKH_olmjNZv7yama-9">
          <mxGeometry y="88" width="160" height="26" as="geometry" />
        </mxCell>
        <mxCell id="hXo2MKH_olmjNZv7yama-13" value="" style="endArrow=diamondThin;endFill=0;endSize=24;html=1;rounded=0;" edge="1" parent="1" source="hXo2MKH_olmjNZv7yama-10">
          <mxGeometry width="160" relative="1" as="geometry">
            <mxPoint x="-664" y="96.68" as="sourcePoint" />
            <mxPoint x="-540" y="96.68" as="targetPoint" />
          </mxGeometry>
        </mxCell>
        <mxCell id="hXo2MKH_olmjNZv7yama-15" value="" style="endArrow=diamondThin;endFill=1;endSize=24;html=1;rounded=0;" edge="1" parent="1" source="hXo2MKH_olmjNZv7yama-4" target="ubx7Iqhd6SEWWLw_gcQs-2">
          <mxGeometry width="160" relative="1" as="geometry">
            <mxPoint x="-162" y="103" as="sourcePoint" />
            <mxPoint x="-380.4000000000001" y="101.24200000000008" as="targetPoint" />
          </mxGeometry>
        </mxCell>
        <mxCell id="hXo2MKH_olmjNZv7yama-16" value="" style="endArrow=diamondThin;endFill=1;endSize=24;html=1;rounded=0;entryX=0.5;entryY=1.02;entryDx=0;entryDy=0;entryPerimeter=0;exitX=0.5;exitY=0;exitDx=0;exitDy=0;" edge="1" parent="1" source="ubx7Iqhd6SEWWLw_gcQs-10" target="ubx7Iqhd6SEWWLw_gcQs-4">
          <mxGeometry width="160" relative="1" as="geometry">
            <mxPoint x="-209" y="290" as="sourcePoint" />
            <mxPoint x="-430" y="290" as="targetPoint" />
          </mxGeometry>
        </mxCell>
      </root>
    </mxGraphModel>
  </diagram>
</mxfile>
